<?xml version="1.0" encoding="UTF-8" standalone="no"?>
<!-- Created with Inkscape (http://www.inkscape.org/) -->

<svg
   width="210mm"
   height="210mm"
   viewBox="0 50 210 210"
   version="1.1"
   id="svg1"
   inkscape:version="1.4-beta2 (9aaf4f34, 2024-07-30)"
   sodipodi:docname="logo_outlined.svg"
   xmlns:inkscape="http://www.inkscape.org/namespaces/inkscape"
   xmlns:sodipodi="http://sodipodi.sourceforge.net/DTD/sodipodi-0.dtd"
   xmlns="http://www.w3.org/2000/svg"
   xmlns:svg="http://www.w3.org/2000/svg">
  <sodipodi:namedview
     id="namedview1"
     pagecolor="#4c4c4c"
     bordercolor="#ffffff"
     borderopacity="1"
     inkscape:showpageshadow="false"
     inkscape:pageopacity="0"
     inkscape:pagecheckerboard="true"
     inkscape:deskcolor="#505050"
     inkscape:document-units="mm"
     inkscape:zoom="0.33334735"
     inkscape:cx="560.9764"
     inkscape:cy="653.97249"
     inkscape:window-width="1536"
     inkscape:window-height="891"
     inkscape:window-x="283"
     inkscape:window-y="103"
     inkscape:window-maximized="0"
     inkscape:current-layer="layer2"
     showguides="false"
     borderlayer="true" />
  <defs
     id="defs1">
    <rect
       x="414"
       y="623"
       width="287"
       height="251"
       id="rect35" />
    <inkscape:perspective
       sodipodi:type="inkscape:persp3d"
       inkscape:vp_x="1.898831 : 64.538124 : 1"
       inkscape:vp_y="0 : 999.99995 : 0"
       inkscape:vp_z="210.75953 : 52.765375 : 1"
       inkscape:persp3d-origin="105 : 11.999997 : 1"
       id="perspective244" />
    <linearGradient
       id="swatch1"
       inkscape:swatch="solid">
      <stop
         style="stop-color:#000000;stop-opacity:1;"
         offset="0"
         id="stop1" />
    </linearGradient>
    <inkscape:path-effect
       effect="fill_between_many"
       method="originald"
       linkedpaths="#path183639,0,1"
       id="path-effect19"
       is_visible="true"
       lpeversion="0"
       join="true"
       close="true"
       autoreverse="true" />
    <clipPath
       clipPathUnits="userSpaceOnUse"
       id="clipPath284">
      <path
         id="path285"
         style="fill:#ff0000;fill-opacity:1;fill-rule:nonzero;stroke:none;stroke-width:0.264583"
         d="m 121.91297,76.867144 -25.913146,5.29e-4 V 158.86782 H 198.00032 V 76.86766 h -44.66343 c 0.01,0.0713 0.0194,0.144727 0.0295,0.221692 1.1e-4,-0.0019 -1.4e-4,-0.0021 0,-0.0041 0,-0.0024 5.3e-4,0.0052 0.001,0.0078 0.002,0.01045 0.004,0.02056 0.006,0.03101 0.004,0.02297 0.009,0.04674 0.016,0.06873 0.18012,0.559634 0.26455,0.977157 0.27854,1.24437 0.0215,0.0656 0.0374,0.133033 0.0636,0.196887 0.0193,0.04323 0.0393,0.08554 0.062,0.127125 0.006,0.01066 0.0265,0.04613 0.0315,0.05684 0.006,0.01275 0.0121,0.02582 0.0181,0.03876 h 5.3e-4 c 0.003,0.0061 0.005,0.01109 0.008,0.01707 0.03,-7.93e-4 0.0599,-0.0019 0.0899,-0.0026 0.115,-0.0024 0.22965,-0.0051 0.34468,-0.0067 0.0509,-7.94e-4 0.10206,-0.0011 0.15296,-0.0011 0.0509,9.8e-5 0.10155,0.0011 0.15245,0.0031 0.0715,0.0036 0.14328,0.0082 0.21445,0.01551 0.63255,0.0648 0.78103,0.206886 0.50282,0.25218 0.0179,0.0076 0.0339,0.01532 0.0481,0.02326 1.62968,-0.07426 1.5511,0.486 -0.37776,0.6165 -0.0507,0.0034 -0.10129,-0.0049 -0.15193,-0.01035 0.0353,0.01503 0.0706,0.03037 0.10542,0.04651 1.87705,0.870736 1.80667,1.240433 -0.0982,0.593246 0.0423,0.05171 0.0886,0.100582 0.11782,0.161229 h 5.3e-4 c 0.0763,0.158256 0.14111,0.304573 0.1974,0.440286 0.21892,0.122351 0.31274,0.226454 0.27285,0.292486 0.0434,0.01648 0.11017,0.03392 0.14986,0.05013 0.14449,0.02845 0.25017,0.06386 0.25942,0.116787 0.56325,0.282353 0.48124,0.482923 -0.19689,0.404627 0.16038,0.02574 0.19507,0.09843 0.0594,0.216009 0.0946,0.102822 -0.0646,0.212103 -0.47801,0.277503 -0.0551,0.02535 -0.0889,0.04754 -0.15193,0.07389 0.005,0.0375 -0.0242,0.07461 -0.0863,0.110072 0.30512,0.05548 0.32368,0.162827 0.002,0.258382 0.0638,0.05694 -0.0123,0.134641 -0.23098,0.208772 9.55462,0.09207 9.61617,2.927426 -0.14728,4.378028 -0.12135,0.227677 -0.24427,0.457285 -0.38602,0.714685 -0.0834,0.424307 -0.29319,0.845942 -0.42531,1.176671 -0.29293,0.46836 -0.66349,0.879213 -1.04127,1.279509 -0.19235,0.198673 -0.39734,0.384212 -0.60514,0.566375 -0.0616,0.07322 -0.12113,0.148013 -0.18344,0.220657 -0.40708,0.459867 -0.82628,0.908738 -1.2449,1.358059 -0.32075,0.342225 -0.64646,0.680008 -0.98857,1.000971 -0.64799,0.594437 -0.91555,0.749245 -1.33066,0.470771 -0.0591,0.04457 -0.1146,0.08393 -0.17311,0.127643 6.37527,1.040717 8.75582,2.58654 7.10706,3.554304 7.88502,1.272008 6.78075,3.857164 -3.13677,4.122234 0.21822,1.2143 -3.95747,2.47987 -12.55634,2.52026 -1.56845,0.007 -3.13781,0.0186 -4.70565,-0.0346 -1.74317,-0.062 -3.48642,-0.12502 -5.22862,-0.20981 -1.04468,-0.0544 -2.09047,-0.10389 -3.13159,-0.20877 -14.08971,-1.41947 -15.93366,-4.973512 -6.13297,-5.062748 1.81495,-0.01654 4.02907,0.08596 6.63888,0.342614 0.87783,0.08633 1.75936,0.127794 2.64015,0.173117 -1.56305,-0.692074 -1.83142,-1.408539 -0.85731,-1.960605 -0.30705,-0.19326 -0.61099,-0.391554 -0.91003,-0.596861 -0.61178,-0.418557 -1.1862,-0.86891 -1.7384,-1.351856 -0.40098,-0.08143 -0.80347,-0.155356 -1.20405,-0.238744 -1.80886,-0.379701 -3.62228,-0.755738 -5.3914,-1.296562 -0.74943,-0.244147 -1.49314,-0.503351 -2.23087,-0.780833 -10.30906,-3.877421 -13.12184,-7.111016 -9.39582,-7.210928 0.22882,-0.0061 0.48687,0.0021 0.76481,0.02016 -3.84377,-1.127514 -2.32148,-2.820615 4.5682,-3.439584 0.73584,-0.228756 1.78583,-0.495509 3.48196,-0.841293 0.79756,-0.162597 1.6186,-0.165894 2.4293,-0.188619 0.31748,-0.0063 0.63425,0.01741 0.95138,0.02585 0.0569,-0.0579 0.19719,-0.124576 0.38292,-0.192754 0.005,-0.02614 0.01,-0.05162 0.015,-0.07855 0.006,-0.03002 0.0235,-0.05625 0.0305,-0.08578 0.009,-0.05046 0.0125,-0.101783 0.0155,-0.152964 0.002,-0.05997 0.003,-0.119835 0.001,-0.179832 -6e-5,-0.007 -5.2e-4,-0.01418 -0.001,-0.02119 -0.0154,-0.230462 -0.0173,-0.422336 -0.0134,-0.593762 -1.20904,-0.03213 -1.3753,-0.309409 -0.60307,-0.433565 0.031,-0.03276 0.0928,-0.06498 0.18293,-0.09509 -0.4762,-0.07136 -0.36108,-0.275944 0.48628,-0.42478 -0.0617,0.0021 -0.1236,0.0024 -0.18501,0.0098 -1.76766,0.211172 -1.8557,-0.207201 -0.0987,-0.493509 0.1251,-0.02037 0.25236,-0.02172 0.37879,-0.02532 0.18161,-0.0051 0.36302,-0.0074 0.54467,-0.0057 0.15934,0.003 0.31899,0.01029 0.47802,0.02066 0.007,-0.265467 0.0112,-0.530992 0.0243,-0.796335 0.0147,-0.315288 0.0302,-0.630677 0.0579,-0.945163 0.009,-0.100658 0.02,-0.19081 0.0305,-0.282668 z m 0.66146,5.29e-4 c -0.006,0.10981 -0.0131,0.222057 -0.0238,0.344165 -0.009,0.104307 -0.0154,0.208685 -0.0222,0.313158 0.005,7.94e-4 0.01,5.29e-4 0.0155,0.0016 0.15453,0.02896 0.1916,0.159988 0.2434,0.271819 0.0605,0.240779 0.0407,0.493851 0.0377,0.740006 l -0.003,0.315227 c 0.2874,-0.04087 0.52928,-0.06131 0.71934,-0.06408 0.85611,-0.01244 0.67606,0.309021 -0.52555,0.529167 0.0253,0.03565 -0.007,0.0913 -0.0662,0.154511 0.53958,0.08234 0.56171,0.237075 0.12661,0.342617 0.27863,0.119499 0.19159,0.246494 -0.25787,0.292489 0.001,0.07973 0.001,0.159208 0.007,0.247529 0.0184,0.234069 0.0595,0.464764 0.10077,0.695565 0.0502,0.249365 0.11662,0.495025 0.17725,0.742072 0.43613,0.03677 0.87293,0.06878 1.30844,0.107487 1.38654,-0.09506 2.61607,-0.132271 3.67678,-0.117303 3.53441,0.04987 5.25137,0.658013 5.11132,1.472777 0.36557,0.06914 0.73123,0.137789 1.09709,0.205673 0.75347,0.139801 1.19872,0.232881 1.95233,0.315741 0.31505,0.03465 0.63184,0.05173 0.94775,0.07752 2.33957,0.05802 4.67781,-0.121182 7.01043,-0.28112 1.67251,-0.118753 3.34456,-0.244049 5.01674,-0.367419 0.83345,-0.06149 1.61275,-0.103968 2.3642,-0.136943 -0.30374,-0.05327 -0.20934,-0.216953 0.23668,-0.399976 -0.50137,-0.08525 -0.62747,-0.230071 -0.38034,-0.345715 -0.50341,-0.250447 -0.51151,-0.437621 -0.0486,-0.427363 0.11716,0.0026 0.26593,0.0186 0.44184,0.04857 0.0786,-0.0066 0.11839,-0.02072 0.22376,-0.0217 0.003,-2.9e-5 0.008,5.29e-4 0.01,5.29e-4 -0.0343,-0.0149 -0.0687,-0.02918 -0.10283,-0.04444 -0.0884,-0.03871 -0.17768,-0.07547 -0.26458,-0.117306 -1.18146,-0.568706 -1.52311,-0.984197 -1.15032,-0.996839 0.0108,-2.64e-4 0.0222,3.2e-5 0.0341,5.3e-4 -0.53716,-0.427826 1.55295,0.708546 0.50282,-0.142627 -0.0125,-0.01013 -0.0271,-0.01844 -0.0377,-0.03049 -0.001,-0.0011 -0.001,-0.0013 0,-0.0011 0.003,0.0011 0.0127,0.0072 0.0171,0.0088 0.0153,0.0056 0.031,0.0105 0.0465,0.01551 0.11218,0.03631 0.22585,0.06543 0.34004,0.09457 0.0856,0.02069 0.17083,0.04256 0.25631,0.06356 -0.21511,-0.109072 -0.32774,-0.202316 -0.36845,-0.276984 -0.41191,-0.148053 -0.4931,-0.28933 -0.28267,-0.364321 -0.66977,-0.224499 -0.6024,-0.438031 0.17776,-0.427879 0.0865,0.0011 0.18494,0.006 0.28888,0.01291 -0.0498,-0.106273 0.11193,-0.184272 0.50591,-0.188619 0.061,-7.94e-4 0.17862,0.02032 0.25011,0.02326 -0.15603,-0.03572 -0.26824,-0.07548 -0.35605,-0.115239 -0.009,-0.004 -0.026,-0.0074 -0.0341,-0.01138 -0.006,-0.0021 -0.0128,-0.0039 -0.0191,-0.0062 0.006,0.0019 0.0114,0.0029 0.0176,0.0047 -0.21586,-0.10754 -0.15734,-0.213281 0.11731,-0.28112 -0.0417,-0.0264 -0.0836,-0.05286 -0.12506,-0.07906 -0.1915,-0.03203 -0.25845,-0.07684 -0.19223,-0.122989 -0.19343,-0.127238 -0.31962,-0.226277 -0.20929,-0.227894 0.0715,-0.0011 0.2415,0.03847 0.55448,0.135909 0.0159,0.0049 0.0317,0.01037 0.0476,0.0155 0.0751,-0.0054 0.12441,-0.01627 0.22014,-0.01654 0.0397,-1.17e-4 0.0791,7.94e-4 0.11885,0.0016 0.0395,5.29e-4 0.0789,0.0019 0.11834,0.0031 -0.0303,-0.04161 -0.053,-0.09916 -0.0646,-0.180351 -0.0161,-0.112924 0.0264,-0.185279 0.0894,-0.234611 -8e-4,-0.0016 -8e-4,-0.0035 -0.002,-0.0052 -0.72457,-0.8391 -0.90854,-1.32242 -0.69401,-1.320332 0.11129,0.0011 0.3492,0.165957 0.6537,0.445966 -2.6e-4,-0.003 7.9e-4,-0.0038 5.3e-4,-0.0067 -2.7e-4,-7.93e-4 -7.9e-4,-0.0013 -10e-4,-0.0021 -0.0131,-0.02474 -0.0262,-0.04968 -0.0393,-0.07441 -0.11978,-0.226981 -0.21632,-0.429009 -0.293,-0.607714 z m 0.12041,1.153933 c 0,-0.0024 -0.003,0.0037 -0.005,0.0057 -0.002,0.0053 -0.004,0.01069 -0.006,0.01601 0.002,-0.0028 0.004,-0.0057 0.006,-0.0083 0.003,-0.0038 0.005,-0.0087 0.005,-0.01344 z m 32.71325,3.812172 c 0.002,0.01082 0.003,0.02175 0.004,0.03204 0.0316,-0.0028 0.075,-0.01133 0.10284,-0.01241 -0.0322,-0.0048 -0.0726,-0.01378 -0.10697,-0.01963 z m -0.42685,0.0083 c -0.0433,0.01191 -0.0772,0.02471 -0.13591,0.03566 0.0542,0.0048 0.11158,0.0089 0.17156,0.01241 -0.0117,-0.01508 -0.0238,-0.03158 -0.0356,-0.04806 z m -30.47153,4.841047 c 0.0134,0.03034 0.0226,0.06223 0.0362,0.0925 0.055,0.123145 0.11971,0.241575 0.1788,0.36277 0.86642,0.878147 1.79462,1.870652 2.78639,2.995682 0.32234,0.36564 0.65148,0.725344 0.98754,1.078486 1.04852,0.208902 2.09697,0.418235 3.14709,0.619085 1.799,0.345726 3.60042,0.680464 5.40381,1.002523 1.37705,0.241747 2.76139,0.437906 4.14755,0.619082 0.54271,0.06642 1.08691,0.1191 1.6309,0.173633 0.88156,-1.063974 2.05563,-2.306066 3.55534,-3.712435 0.0944,-0.171857 0.19102,-0.342696 0.29353,-0.510561 0.31473,-0.469368 0.6733,-0.905814 1.04851,-1.327568 -1.06431,0.07863 -2.12856,0.158028 -3.19309,0.233577 -2.57458,0.176342 -5.15654,0.375266 -7.73854,0.275436 -0.40195,-0.03551 -0.80523,-0.06052 -1.20613,-0.106455 -1.82005,-0.208558 -3.60249,-0.663866 -5.40846,-0.959114 -1.88079,-0.336048 -3.76725,-0.649272 -5.66942,-0.836642 z m -11.79411,0.127643 c 1.7758,0.451083 3.87809,1.100984 6.37532,2.037085 0.56108,0.210312 1.12739,0.404805 1.69602,0.593244 -0.63879,-0.837962 -1.15495,-1.584193 -1.61592,-2.286164 -2.53918,-0.02223 -4.69058,-0.147537 -6.45542,-0.344165 z" />
    </clipPath>
  </defs>
  <g
     inkscape:label="all piece shapes separated"
     inkscape:groupmode="layer"
     id="layer1"
     style="display:none">
    <rect
       style="fill:#240fe2;fill-opacity:1;stroke-width:0.132291"
       id="rect1"
       width="80"
       height="80"
       x="17"
       y="78" />
    <rect
       style="fill:#ea2b2b;fill-opacity:1;stroke-width:0.132291"
       id="rect1-8"
       width="80"
       height="80"
       x="96.999992"
       y="78" />
    <path
       d="m 16.999996,158.00017 v 79.99977 h 26.576672 c 0,0 0,0 0,0 h 27.120825 c 0,0 0,0 0,0 h 26.302271 v -79.99977 z"
       style="fill:#d7d936;stroke-width:0.132291"
       id="path4" />
    <path
       id="path3"
       style="fill:#d7d936;stroke-width:0.352949"
       d="m 45.771536,237.99994 c -5.332105,13.38841 2.207504,20.08923 11.513006,19.9991 9.305504,0.0902 16.182944,-6.61069 10.85084,-19.9991 h -10.85084 z"
       sodipodi:nodetypes="ccccc" />
    <path
       id="path3-5"
       style="fill:#240fe2;fill-opacity:1;stroke-width:0.352949"
       d="m 45.771536,158 c -5.332105,13.38841 2.207504,20.08923 11.513006,19.9991 9.305504,0.0902 16.182944,-6.61069 10.85084,-19.9991 h -10.85084 z"
       sodipodi:nodetypes="ccccc" />
    <path
       id="path3-1"
       style="fill:#3e3e3e;fill-opacity:1;stroke-width:0.352949"
       d="M 97,209.22847 C 83.611588,214.56057 76.910769,207.02096 77.000899,197.71545 76.910664,188.40994 83.611588,181.5325 97,186.86461 v 10.85084 z"
       sodipodi:nodetypes="ccccc" />
    <path
       id="path3-1-1"
       style="fill:#3e3e3e;fill-opacity:1;stroke-width:0.352949"
       d="m 125.77154,158 c -5.3321,-13.38842 2.2075,-20.08923 11.513,-19.99911 9.30551,-0.0902 16.18295,6.61069 10.85084,19.99911 h -10.85084 z"
       sodipodi:nodetypes="ccccc" />
    <path
       id="path3-1-7"
       style="fill:#240fe2;fill-opacity:1;stroke-width:0.352949"
       d="m 97,129.22847 c 13.38841,5.3321 20.08923,-2.2075 19.9991,-11.513 0.0902,-9.30552 -6.61069,-16.18295 -19.9991,-10.85084 v 10.85084 z"
       sodipodi:nodetypes="ccccc" />
    <path
       id="path3-1-9"
       style="fill:#ea2b2b;fill-opacity:1;stroke-width:0.352949"
       d="m 177,106.77154 c 13.38841,-5.33211 20.08923,2.2075 19.9991,11.51301 0.0902,9.3055 -6.61069,16.18294 -19.9991,10.85083 v -10.85083 z"
       sodipodi:nodetypes="ccccc" />
  </g>
  <g
     inkscape:label="piece shapes together"
     inkscape:groupmode="layer"
     id="g11">
    <path
       id="path20"
       style="display:inline;fill:none;fill-opacity:1;stroke:#ffffff;stroke-width:2;stroke-linecap:round;stroke-linejoin:round;stroke-dasharray:none;stroke-opacity:1"
       d="M 121.60705,77.867598 H 96.999764 v 28.997192 c 13.388406,-5.33211 20.089496,1.54499 19.999296,10.85051 0.0901,9.3055 -6.61089,16.84509 -19.999296,11.51299 v 28.63959 h 28.771886 c -5.3321,-13.38842 2.20749,-20.08941 11.51299,-19.99929 9.30551,-0.0902 16.18261,6.61087 10.8505,19.99929 h 28.86491 v -28.8649 c 13.38841,5.33211 20.08949,-1.545 19.99929,-10.8505 0.0901,-9.30551 -6.61088,-16.8451 -19.99929,-11.51299 V 77.867598 H 153.6423 a 20.021027,16.024363 89.228762 0 1 -0.12351,2.621029 20.021027,16.024363 89.228762 0 1 -14.03686,17.17828 l 3.23287,4.584733 -0.0558,0.0791 -9.83196,-0.046 -0.002,-0.001 3.21996,-4.608505 a 20.021027,16.024363 89.228762 0 1 -0.49506,-0.06976 20.021027,16.024363 89.228762 0 1 -13.94282,-19.737814 z"
       clip-path="url(#clipPath284)" />
    <path
       id="path5"
       style="fill:none;fill-opacity:1;stroke:#ffffff;stroke-width:2;stroke-linecap:round;stroke-linejoin:round;stroke-dasharray:none;stroke-opacity:1"
       d="M 96.999764,158.00017 H 68.135376 c 5.332104,13.38841 -1.545513,20.08898 -10.851017,19.99878 -9.305502,0.0901 -16.845098,-6.61037 -11.512993,-19.99878 h -28.77137 v 79.71504 h 26.576672 2.194698 c -5.332105,13.38841 2.207491,20.08942 11.512993,19.99929 9.305504,0.0902 16.183121,-6.61088 10.851017,-19.99929 h 2.562117 26.302271 v -28.77137 c -13.388412,5.3321 -20.088909,-2.20749 -19.998779,-11.513 -0.09023,-9.30551 6.610367,-16.18312 19.998779,-10.85101 z" />
    <path
       id="rect4"
       style="display:inline;fill:none;fill-opacity:1;stroke:#ffffff;stroke-width:2;stroke-linecap:round;stroke-linejoin:round;stroke-dasharray:none;stroke-opacity:1"
       d="m 17,78 v 80.00028 h 28.77137 c -5.332105,13.38841 2.207491,20.08891 11.512993,19.99878 9.305504,0.0902 16.183121,-6.61037 10.851017,-19.99878 H 96.999768 V 129.2284 c 13.388402,5.3321 20.089422,-2.20749 19.999292,-11.51299 0.0902,-9.30552 -6.61089,-16.18262 -19.999292,-10.85051 V 78 Z" />
  </g>
  <g
     inkscape:groupmode="layer"
     id="layer3"
     inkscape:label="cloudd">
    <ellipse
       style="fill:none;fill-opacity:1;stroke:#ffffff;stroke-width:1.5;stroke-linecap:round;stroke-linejoin:round;stroke-dasharray:none;stroke-opacity:1;paint-order:normal"
       id="path274"
       cx="51.77903"
       cy="217.30852"
       rx="2.6579607"
       ry="2.6068044" />
    <ellipse
       style="fill:none;fill-opacity:1;stroke:#ffffff;stroke-width:1.5;stroke-linecap:round;stroke-linejoin:round;stroke-dasharray:none;stroke-opacity:1;paint-order:normal"
       id="path275"
       cx="59.251095"
       cy="222.62643"
       rx="2.0991726"
       ry="2.1285181" />
    <path
       id="path270"
       style="fill:none;fill-opacity:1;stroke:#ffffff;stroke-width:1.5;stroke-linecap:round;stroke-linejoin:round;stroke-dasharray:none;stroke-opacity:1;paint-order:normal"
       d="m 50.259368,187.403 c -1.124521,0.003 -2.324591,0.26344 -3.537099,0.93541 -4.565651,2.53028 -4.744676,6.5179 -4.750266,6.98236 l -0.0049,0.003 c 0,0 -0.0068,0.13582 -0.01355,0.30109 -0.876708,-0.0875 -2.324438,-0.002 -3.885941,1.06826 -2.282151,1.5636 -2.566975,4.46893 -2.558839,4.67212 -0.111495,1.03445 -0.146942,3.71081 2.077489,5.67779 2.597743,2.2971 5.301488,1.3913 5.697909,1.18369 0.303537,0.64521 1.334287,2.5249 3.363933,3.22546 2.35185,0.81178 5.033718,-0.2571 7.324661,-1.83596 1.681296,0.83702 4.731017,1.86487 7.213737,1.42814 2.745456,-0.48295 4.194315,-2.144 4.734705,-2.91892 3.534972,0.59819 7.972205,-2.96862 6.777606,-7.73178 -0.964859,-3.84712 -3.263104,-4.00278 -4.746296,-4.21127 0.01322,-0.0865 -0.04742,-0.83369 0.0038,-0.98505 0.411868,-3.51994 -3.595616,-7.2607 -7.030792,-6.95036 -1.742669,0.15744 -3.614141,1.11062 -4.441602,1.78123 l -0.03814,5.4e-4 c -0.687962,-0.76667 -3.158424,-2.63086 -6.186285,-2.62491 z"
       sodipodi:nodetypes="cscccccscscscsccscccc" />
  </g>
  <g
     inkscape:groupmode="layer"
     id="layer6"
     inkscape:label="lightbulb">
    <path
       id="path2"
       style="display:inline;fill:#ffffff;fill-opacity:1;stroke:none;stroke-width:0;stroke-linecap:round;stroke-linejoin:round;stroke-dasharray:none;stroke-opacity:1;paint-order:stroke fill markers"
       d="m 49.982125,131.51741 -0.511492,0.15332 0.195683,2.91954 c -0.04426,-0.40149 0.233224,1.76239 0.626182,2.98245 0.400379,1.2431 0.809016,2.11232 1.162153,2.48993 0.440422,0.47093 1.200304,0.97692 1.932643,1.09381 0.737529,0.11772 2.459017,0.0593 3.86552,0.0911 1.420164,0.032 4.610307,-0.006 4.415734,-0.0801 0.222489,0.0384 1.274543,-0.31373 1.82341,-1.09832 0.69703,-0.99639 0.85177,-2.42421 1.00545,-3.41209 0.203199,-1.30614 0.470975,-4.06487 0.484147,-4.86085 l -0.318902,-0.12893 -11.63658,-0.0498 z m 1.268131,1.44131 h 6.11127 6.11127 v 0.28484 c -1.21e-4,0.15658 -0.01438,0.55897 -0.03152,0.89452 l -0.06404,0.59366 -6.015682,0.0165 -5.999152,-0.0165 -0.04961,-0.38159 c -0.02825,-0.21729 -0.01437,-0.62203 -0.03151,-0.89505 z m 6.159645,2.98296 5.87731,-0.0331 -0.04487,0.399 c -0.0532,0.47304 -0.195884,0.9745 -0.333743,1.20317 -0.214413,0.35566 -0.16268,0.32893 -3.009164,0.34313 -1.418725,0.007 -3.690353,8.9e-4 -5.048061,-0.0139 v -5.3e-4 c -2.821556,-0.0309 -2.514204,0.0779 -2.811787,-0.48014 -0.122268,-0.2293 -0.440827,-1.25253 -0.440827,-1.39103 0,-0.0146 2.569536,-0.0267 5.811161,-0.0267 z m -1.434459,3.09575 c 0.87291,-0.002 1.893832,-0.002 2.852072,5.2e-4 l 3.617067,-0.008 c -0.173501,0.50066 -0.422163,0.81894 -0.918986,1.00777 l -0.645589,0.0466 -1.501322,0.0209 c -1.682922,0.0235 -2.609954,0.023 -4.159338,-0.002 v 9.7e-4 l -1.06049,-0.0173 -0.217423,-0.0242 c -0.440625,-0.01 -1.181821,-0.44455 -1.305729,-1.00131 l 0.04466,0.007 1.331185,-0.0203 c 0.36618,-0.006 1.090976,-0.009 1.96389,-0.0115 z"
       sodipodi:nodetypes="cccsssscssccccccccccccsccscsscccsssscccccccccccsscc" />
    <path
       id="path183639-5"
       style="font-variation-settings:'wght' 400;display:inline;fill:#ffffff;fill-opacity:1;fill-rule:nonzero;stroke:none;stroke-width:2.64581;stroke-linecap:round;stroke-linejoin:round;stroke-dasharray:none;stroke-opacity:1;paint-order:stroke fill markers"
       inkscape:label="path183639-5"
       d="m 57.624993,98.830876 c -2.554328,0.0029 -3.007879,0.136451 -4.357855,0.487119 -2.958607,0.768495 -5.786828,2.360455 -7.956729,4.478865 -2.717669,2.65314 -4.497497,6.25463 -4.778672,9.67041 -0.523757,6.36282 2.739086,12.76033 7.987781,16.06556 0.848036,0.53401 0.671414,0.48342 0.724556,0.61786 0.05315,0.13444 0.163867,0.61099 0.169977,1.04781 l 0.09624,0.97619 1.494994,0.12852 c 0.470884,0.0289 1.799231,0.0653 2.951771,0.0806 l 2.09552,0.0279 v -0.0507 l 2.286022,0.0213 v 0.0294 h 3.04803 l 3.562524,-0.14031 0.116928,-0.96386 c 0.04868,-0.40125 0.126286,-0.89584 0.26378,-1.08641 0.132222,-0.18322 0.292329,-0.34916 1.155966,-0.91157 2.809514,-1.82964 4.617626,-3.7823 6.147466,-6.63923 2.452152,-4.57929 2.490012,-9.89613 0.103817,-14.55731 -1.779914,-3.47688 -4.355252,-5.92459 -8.07365,-7.67379 -2.819103,-1.326132 -3.652893,-1.611296 -7.03849,-1.608353 z m 0.06551,1.382784 c 3.104211,-0.003 3.912922,0.17183 6.497726,1.40712 3.409353,1.62936 5.77088,3.90946 7.40286,7.14814 2.187874,4.34185 2.153099,9.2947 -0.09525,13.56028 -1.402691,2.66119 -3.133379,4.06038 -5.709387,5.76466 -0.791859,0.5239 -0.828135,0.54254 -1.002105,0.65812 -0.316831,0.21049 -0.886286,0.93117 -0.90239,1.26189 0.02906,-0.30713 -0.157305,0.73219 -0.240402,1.12607 l -2.288176,0.004 -2.907421,0.008 -0.05644,-2.41938 v -2.6708 c 0,0 -0.93435,-0.68565 -1.60213,-1.14252 -0.667781,-0.45687 -1.949368,-1.41169 -1.949368,-1.41169 0,0 1.802552,-1.17605 2.696759,-1.68794 0.894208,-0.51189 2.640316,-1.51508 2.640316,-1.51508 0,0 -2.06286,-1.35984 -2.887261,-1.89272 -0.393639,-0.25444 -2.063268,-1.33363 -2.063268,-1.33363 1.738467,-0.99422 5.289199,-2.91765 5.289199,-2.91765 l -0.781661,-1.18865 c 0,0 -2.529804,1.31511 -3.612481,1.91908 -1.300996,0.72574 -4.032289,2.21713 -4.032289,2.21713 0,0 1.734711,1.05297 2.590421,1.59771 0.84444,0.53755 2.509788,1.64841 2.509788,1.64841 0,0 -1.290378,0.77533 -2.288039,1.39038 -0.862502,0.53173 -2.794028,1.59923 -2.794028,1.59923 0,0 1.805337,1.39798 2.693233,2.11474 0.513952,0.41488 1.524518,1.2652 1.524518,1.2652 l -0.03024,2.42596 -0.02067,2.01438 -1.667145,0.006 c -1.187892,0.003 -1.467399,0.003 -1.899977,5.1e-4 l -0.728241,-0.004 -0.742985,0.0154 -0.08774,-0.91733 c -0.04347,-0.45444 -0.162736,-0.69566 -0.21147,-0.8209 -0.04873,-0.12523 -0.334185,-0.46814 -1.111738,-0.96559 -4.812464,-3.07878 -8.240912,-8.79465 -7.760683,-14.72156 0.257805,-3.18178 1.889744,-6.53651 4.381543,-9.00791 1.989553,-1.97326 4.582802,-3.45634 7.295515,-4.1722 1.237777,-0.32663 1.609117,-0.3606 3.951149,-0.36293 z"
       sodipodi:nodetypes="csssssccccccccccsscsssccsssssscccccscscscccscscscsccccccccsssssccs" />
    <rect
       style="fill:#ffffff;fill-opacity:1;stroke:#ffffff;stroke-width:0.488294;stroke-linecap:round;stroke-linejoin:round;stroke-dasharray:none;stroke-opacity:1;paint-order:stroke fill markers"
       id="rect299-1"
       width="0.97900158"
       height="6.6464972"
       x="57.155495"
       y="89.270004"
       transform="matrix(0.99985452,0.01705719,-0.00406869,0.99999172,0,0)" />
    <rect
       style="fill:#ffffff;fill-opacity:1;stroke:#ffffff;stroke-width:0.488275;stroke-linecap:round;stroke-linejoin:round;stroke-dasharray:none;stroke-opacity:1;paint-order:stroke fill markers"
       id="rect299-1-0"
       width="0.98259658"
       height="6.6216755"
       x="-32.20517"
       y="99.391342"
       transform="matrix(0.76457811,-0.64453108,0.64762163,0.76196209,0,0)" />
    <rect
       style="fill:#ffffff;fill-opacity:1;stroke:#ffffff;stroke-width:0.488275;stroke-linecap:round;stroke-linejoin:round;stroke-dasharray:none;stroke-opacity:1;paint-order:stroke fill markers"
       id="rect299-1-0-8"
       width="0.98259658"
       height="6.6216755"
       x="-118.63759"
       y="25.874474"
       transform="matrix(-0.76457811,-0.64453108,-0.64762163,0.76196209,0,0)"
       inkscape:transform-center-x="0.18189796"
       inkscape:transform-center-y="-0.091762119" />
  </g>
  <g
     inkscape:groupmode="layer"
     id="layer7"
     inkscape:label="balloon"
     style="display:inline">
    <path
       style="display:inline;fill:#ffffff;fill-opacity:1;stroke:#ffffff;stroke-width:0.6;stroke-linecap:round;stroke-linejoin:round;stroke-dasharray:none;stroke-opacity:1;paint-order:stroke fill markers"
       id="path24"
       d="m 137.18244,102.77014 c -0.0271,0.20948 -0.034,0.28341 -0.0863,0.53091 -0.18302,0.86674 -0.42073,1.7199 -0.62409,2.58131 -0.10495,0.44461 -0.20187,0.89126 -0.3028,1.33689 -0.47339,2.56754 -0.96161,5.14619 -1.16874,7.75905 -0.0365,0.46026 -0.0505,0.92257 -0.0757,1.38387 -0.0128,1.21907 -0.007,2.46117 0.29276,3.66071 0.0903,0.362 0.184,0.72918 0.35022,1.06495 0.44435,0.89762 0.8021,1.11503 1.51286,1.78132 0.40171,0.1827 0.78497,0.41652 1.20515,0.54811 0.92133,0.28855 1.89058,0.31472 2.83651,0.29386 1.43893,-0.0317 2.82813,-0.3043 4.22875,-0.57913 1.52599,-0.29077 3.01446,-0.7512 4.54543,-1.02031 0.78347,-0.1377 0.97869,-0.12801 1.75313,-0.17356 0.54737,0.0596 0.88599,0.0449 1.39106,0.29455 0.98705,0.48802 1.65022,1.54611 2.21638,2.4376 0.84202,1.58318 1.38273,3.29138 1.81172,5.0168 0.16645,0.75276 0.0906,0.38963 0.22923,1.08905 0.13691,0.6657 1.07411,0.49558 0.93719,-0.1701 v 0 c -0.15453,-0.72555 -0.0705,-0.3489 -0.25384,-1.12962 -0.47294,-1.81788 -1.06799,-3.61271 -1.95145,-5.28645 -0.18314,-0.28672 -0.35143,-0.58329 -0.54941,-0.86018 -0.56909,-0.79595 -1.27754,-1.57405 -2.18344,-1.98992 -0.63296,-0.29057 -1.05765,-0.26827 -1.73053,-0.32727 -0.82479,0.0577 -1.05407,0.0525 -1.88593,0.20484 -0.33571,0.0615 -0.66625,0.14604 -0.99864,0.22191 -1.17615,0.26848 -2.34361,0.56999 -3.52335,0.82441 -1.33757,0.26627 -2.66432,0.52791 -4.03893,0.56306 -0.85444,0.0219 -1.65669,-0.002 -2.49035,-0.23655 -0.32516,-0.0917 -0.62637,-0.25738 -0.93956,-0.38606 -0.52969,-0.47565 -0.92301,-0.73977 -1.25695,-1.38764 -0.1511,-0.29311 -0.23862,-0.61517 -0.3214,-0.93294 -0.29422,-1.12955 -0.30541,-2.30282 -0.30116,-3.45336 0.022,-0.44731 0.0327,-0.89563 0.0662,-1.34195 0.19297,-2.57574 0.64844,-5.12394 1.15579,-7.64525 0.3233,-1.31565 0.69047,-2.61934 1.01288,-3.93487 0.0869,-0.35414 0.0856,-0.40048 0.13,-0.72776 -0.0105,-0.70169 -1.00285,-0.71196 -0.99258,-0.0103 z" />
    <path
       id="path299"
       style="display:inline;fill:none;fill-opacity:1;stroke:#ffffff;stroke-width:1.5;stroke-linecap:round;stroke-linejoin:round;stroke-dasharray:none;stroke-opacity:1;paint-order:normal"
       inkscape:transform-center-x="3.3536168"
       inkscape:transform-center-y="-0.59881261"
       d="m 137.42683,57.750464 a 20.021027,16.024363 89.228762 0 0 -15.68707,17.301842 20.021027,16.024363 89.228762 0 0 13.80989,22.553274 20.021027,16.024363 89.228762 0 0 0.49546,0.06983 l -3.22026,4.60851 0.002,0.001 9.832,0.046 0.0558,-0.0791 -3.2325,-4.584725 a 20.021027,16.024363 89.228762 0 0 14.03683,-17.178225 20.021027,16.024363 89.228762 0 0 -13.8094,-22.553273 20.021027,16.024363 89.228762 0 0 -2.28266,-0.185169 z" />
  </g>
  <g
     inkscape:groupmode="layer"
     id="layer2"
     inkscape:label="text">
    <path
       d="M 21.963991,74.971634 H 17.72508 v -1.095773 h 1.405761 V 65.333156 H 17.72508 v -1.095773 h 4.238911 v 1.095773 H 20.55823 v 8.542705 h 1.405761 z m 12.042752,-0.778576 q -0.396496,0.173017 -0.720903,0.324407 -0.317197,0.15139 -0.836248,0.317197 -0.439751,0.136972 -0.958801,0.230689 -0.511842,0.100927 -1.131818,0.100927 -1.167864,0 -2.126665,-0.324407 -0.951593,-0.331615 -1.658078,-1.030891 -0.692067,-0.684859 -1.081355,-1.737377 -0.389288,-1.059728 -0.389288,-2.458281 0,-1.326462 0.37487,-2.371772 0.37487,-1.04531 1.081355,-1.766213 0.684858,-0.699276 1.650869,-1.066937 0.973219,-0.36766 2.155501,-0.36766 0.865084,0 1.722959,0.209061 0.865084,0.209062 1.917602,0.735322 v 1.694123 h -0.108135 q -0.886711,-0.742531 -1.759004,-1.081355 -0.872293,-0.338825 -1.86714,-0.338825 -0.814621,0 -1.470643,0.266734 -0.648813,0.259526 -1.160654,0.814621 -0.497423,0.540678 -0.778576,1.369716 -0.273943,0.82183 -0.273943,1.903185 0,1.131818 0.30278,1.946439 0.309988,0.814621 0.792993,1.326462 0.504633,0.533469 1.175073,0.792994 0.677649,0.252316 1.427388,0.252316 1.030892,0 1.932021,-0.353243 0.901129,-0.353242 1.686914,-1.059727 h 0.100926 z m 10.363049,-6.71161 q 0,0.713695 -0.252316,1.326462 -0.245107,0.605559 -0.692067,1.052519 -0.555096,0.555096 -1.312044,0.836248 -0.756949,0.273943 -1.910394,0.273943 h -1.427388 v 4.001014 H 37.348194 V 64.237383 h 2.912449 q 0.966011,0 1.636451,0.165808 0.67044,0.158599 1.18949,0.504633 0.612768,0.410914 0.944384,1.023682 0.338824,0.612768 0.338824,1.549942 z m -1.48506,0.03605 q 0,-0.555096 -0.194644,-0.966011 -0.194644,-0.410915 -0.591141,-0.67044 -0.346034,-0.22348 -0.792994,-0.317197 -0.439751,-0.100927 -1.1174,-0.100927 h -1.41297 v 4.289375 h 1.203908 q 0.865084,0 1.405762,-0.15139 0.540677,-0.158599 0.879502,-0.497423 0.338824,-0.346034 0.475796,-0.728113 0.144181,-0.382078 0.144181,-0.857874 z m 12.979926,6.675564 q -0.396496,0.173017 -0.720903,0.324407 -0.317197,0.15139 -0.836248,0.317197 -0.439751,0.136972 -0.958801,0.230689 -0.511842,0.100927 -1.131818,0.100927 -1.167864,0 -2.126665,-0.324407 -0.951593,-0.331615 -1.658078,-1.030891 -0.692067,-0.684859 -1.081355,-1.737377 -0.389288,-1.059728 -0.389288,-2.458281 0,-1.326462 0.37487,-2.371772 0.37487,-1.04531 1.081355,-1.766213 0.684858,-0.699276 1.650869,-1.066937 0.973219,-0.36766 2.155501,-0.36766 0.865084,0 1.722958,0.209061 0.865084,0.209062 1.917603,0.735322 v 1.694123 h -0.108135 q -0.886711,-0.742531 -1.759004,-1.081355 -0.872293,-0.338825 -1.86714,-0.338825 -0.814621,0 -1.470643,0.266734 -0.648813,0.259526 -1.160654,0.814621 -0.497423,0.540678 -0.778576,1.369716 -0.273943,0.82183 -0.273943,1.903185 0,1.131818 0.30278,1.946439 0.309988,0.814621 0.792993,1.326462 0.504633,0.533469 1.175073,0.792994 0.677649,0.252316 1.427388,0.252316 1.030892,0 1.932021,-0.353243 0.901129,-0.353242 1.686914,-1.059727 h 0.100926 z"
       id="text37"
       style="font-size:14.7641px;letter-spacing:1.32292px;fill:#ffffff;stroke:#ffffff;stroke-width:1.01457;stroke-linecap:round;stroke-linejoin:round"
       transform="scale(1.0159212,0.98432832)"
       aria-label="ICPC" />
    <path
       d="m 117.0808,224.69139 h -5.8987 v 3.29011 h 5.06834 v 1.37871 h -5.06834 v 5.61669 h -1.55105 v -11.66422 h 7.44975 z m 6.14761,10.28551 h -4.60615 v -1.19071 h 1.52755 v -9.28281 h -1.52755 v -1.1907 h 4.60615 v 1.1907 h -1.52755 v 9.28281 h 1.52755 z m 11.80347,0 h -1.91923 l -5.53052,-10.43435 v 10.43435 h -1.44922 v -11.66422 h 2.40492 l 5.04483,9.52565 v -9.52565 h 1.44922 z m 12.56332,0 h -1.65289 l -1.1437,-3.25094 h -5.04484 l -1.1437,3.25094 h -1.57455 l 4.2458,-11.66422 h 2.06807 z m -3.27444,-4.58265 -2.04457,-5.72636 -2.0524,5.72636 z m 12.68866,4.58265 h -7.37924 v -11.66422 h 1.55105 v 10.28551 h 5.82819 z m 10.29158,-3.32928 q 0,0.68152 -0.32118,1.34738 -0.31334,0.66585 -0.88519,1.12804 -0.62669,0.50135 -1.46488,0.78336 -0.83036,0.28201 -2.0054,0.28201 -1.26121,0 -2.27175,-0.23501 -1.0027,-0.23501 -2.04456,-0.69719 v -1.94273 h 0.10967 q 0.88519,0.73635 2.04456,1.13587 1.15938,0.39951 2.17774,0.39951 1.44139,0 2.24041,-0.54052 0.80686,-0.54052 0.80686,-1.44138 0,-0.77552 -0.38384,-1.1437 -0.37602,-0.36818 -1.15154,-0.57186 -0.58752,-0.15667 -1.27688,-0.2585 -0.68152,-0.10184 -1.44921,-0.25851 -1.55105,-0.32901 -2.30308,-1.12021 -0.74419,-0.79902 -0.74419,-2.0759 0,-1.46488 1.23771,-2.39708 1.2377,-0.94003 3.14127,-0.94003 1.22987,0 2.25607,0.23501 1.0262,0.23501 1.8174,0.57968 v 1.83307 h -0.10967 q -0.66586,-0.56402 -1.75473,-0.9322 -1.08103,-0.37602 -2.21691,-0.37602 -1.24554,0 -2.0054,0.51702 -0.75202,0.51702 -0.75202,1.33171 0,0.72853 0.37601,1.14371 0.37601,0.41518 1.32388,0.63452 0.50135,0.10967 1.42571,0.26634 0.92437,0.15667 1.56672,0.32118 1.30038,0.34468 1.9584,1.04187 0.65802,0.69719 0.65802,1.95056 z"
       id="text36"
       style="font-size:16.0432px;letter-spacing:0.264583px;fill:#ffffff;stroke:#ffffff;stroke-width:1.0106;stroke-linecap:round;stroke-linejoin:round"
       transform="scale(1.0089204,0.99115846)"
       aria-label="FINALS" />
    <text
       xml:space="preserve"
       id="text35"
       style="font-size:150px;text-align:start;writing-mode:lr-tb;direction:ltr;white-space:pre;shape-inside:url(#rect35);display:inline;fill:#000000;fill-opacity:1;fill-rule:nonzero;stroke:#000000;stroke-width:3.77953;stroke-linecap:round;stroke-linejoin:round;stroke-dasharray:none;stroke-opacity:1;paint-order:normal"
       transform="scale(0.26458333)" />
    <path
       d="m 119.3401,185.2411 h -8.46459 v -1.75506 q 0.88173,-0.75576 1.76346,-1.51153 0.89012,-0.75577 1.65429,-1.50314 1.6123,-1.56191 2.20852,-2.47723 0.59622,-0.92372 0.59622,-1.99019 0,-0.9741 -0.64661,-1.51993 -0.6382,-0.55423 -1.78864,-0.55423 -0.76417,0 -1.65429,0.26872 -0.89013,0.26871 -1.73827,0.82294 h -0.084 V 173.258 q 0.59621,-0.29391 1.58711,-0.53744 0.99929,-0.24352 1.9314,-0.24352 1.92301,0 3.01467,0.93211 1.09167,0.92372 1.09167,2.51083 0,0.71378 -0.18475,1.33518 -0.17634,0.61302 -0.52903,1.16725 -0.3275,0.52063 -0.77256,1.02448 -0.43667,0.50384 -1.06648,1.11686 -0.89852,0.88172 -1.85582,1.71307 -0.95731,0.82294 -1.78865,1.52833 h 6.72632 z m 11.71039,-6.25607 q 0,3.36736 -1.05807,4.94608 -1.04968,1.57031 -3.2666,1.57031 -2.2505,0 -3.29178,-1.5955 -1.03288,-1.59551 -1.03288,-4.90409 0,-3.33378 1.04967,-4.92089 1.04968,-1.59551 3.27499,-1.59551 2.25051,0 3.28339,1.62071 1.04128,1.6123 1.04128,4.87889 z m -2.20852,3.81243 q 0.29391,-0.68019 0.39468,-1.59551 0.10917,-0.92372 0.10917,-2.21692 0,-1.2764 -0.10917,-2.21692 -0.10077,-0.94051 -0.40308,-1.5955 -0.29391,-0.6466 -0.80615,-0.9741 -0.50384,-0.3275 -1.3016,-0.3275 -0.78935,0 -1.30999,0.3275 -0.51225,0.3275 -0.81455,0.99089 -0.28551,0.62141 -0.39468,1.6207 -0.10077,0.99929 -0.10077,2.19173 0,1.30999 0.0924,2.19172 0.0924,0.88173 0.39468,1.57871 0.27711,0.655 0.78096,0.9993 0.51224,0.34429 1.35198,0.34429 0.78936,0 1.31,-0.3275 0.52064,-0.3275 0.80615,-0.99089 z m 13.9525,2.44364 h -8.4646 v -1.75506 q 0.88173,-0.75576 1.76346,-1.51153 0.89013,-0.75577 1.65429,-1.50314 1.6123,-1.56191 2.20852,-2.47723 0.59622,-0.92372 0.59622,-1.99019 0,-0.9741 -0.6466,-1.51993 -0.63821,-0.55423 -1.78865,-0.55423 -0.76417,0 -1.65429,0.26872 -0.89013,0.26871 -1.73827,0.82294 h -0.084 V 173.258 q 0.59621,-0.29391 1.58711,-0.53744 0.99929,-0.24352 1.9314,-0.24352 1.92301,0 3.01467,0.93211 1.09167,0.92372 1.09167,2.51083 0,0.71378 -0.18474,1.33518 -0.17635,0.61302 -0.52904,1.16725 -0.3275,0.52063 -0.77256,1.02448 -0.43667,0.50384 -1.06648,1.11686 -0.89852,0.88172 -1.85582,1.71307 -0.95731,0.82294 -1.78865,1.52833 h 6.72633 z m 12.01269,-3.51851 h -1.85583 v 3.51851 h -1.6123 v -3.51851 h -5.98736 v -1.93141 l 6.05454,-7.05382 h 1.54512 v 7.64164 h 1.85583 z m -3.46813,-1.34359 v -5.64306 l -4.84531,5.64306 z"
       id="text33"
       style="font-size:17.1979px;letter-spacing:0.79375px;fill:#ffffff;stroke:#ffffff;stroke-width:0.968202;stroke-linecap:round;stroke-linejoin:round"
       transform="scale(1.0389138,0.96254377)"
       aria-label="2024" />
    <path
       d="m 143.19976,204.82736 h -3.87765 v -25.12638 l -8.10781,17.09691 h -2.31092 l -8.04906,-17.09691 v 25.12638 h -3.62305 v -29.1607 h 5.2877 l 7.77488,16.23521 7.52029,-16.23521 h 5.38562 z m 30.61032,-29.1607 -10.06622,14.41389 10.04663,14.74681 h -4.48475 l -7.95114,-12.00504 -8.14698,12.00504 h -4.23016 l 10.16414,-14.57055 -9.92913,-14.59015 h 4.46517 l 7.85322,11.84837 8.02947,-11.84837 z"
       id="text34"
       style="font-size:40.1082px;letter-spacing:0.529167px;fill:#ffffff;stroke:#ffffff;stroke-width:1.07816;stroke-linecap:round;stroke-linejoin:round"
       transform="scale(0.95358339,1.048676)"
       aria-label="MX" />
  </g>
</svg>
